<svg width="258" height="24" viewBox="0 0 258 24" fill="none" xmlns="http://www.w3.org/2000/svg">
<path d="M5.304 23.32C3.59733 23.32 2.296 22.84 1.4 21.88C0.504 20.8987 0.056 19.5013 0.056 17.688V5.912C0.056 4.09867 0.504 2.712 1.4 1.752C2.296 0.770665 3.59733 0.279999 5.304 0.279999C7.01067 0.279999 8.312 0.770665 9.208 1.752C10.104 2.712 10.552 4.09867 10.552 5.912V7.832H7.224V5.688C7.224 4.216 6.616 3.48 5.4 3.48C4.184 3.48 3.576 4.216 3.576 5.688V17.944C3.576 19.3947 4.184 20.12 5.4 20.12C6.616 20.12 7.224 19.3947 7.224 17.944V13.56H5.464V10.36H10.552V17.688C10.552 19.5013 10.104 20.8987 9.208 21.88C8.312 22.84 7.01067 23.32 5.304 23.32ZM15.212 0.599998H19.98L23.628 23H20.108L19.468 18.552V18.616H15.468L14.828 23H11.564L15.212 0.599998ZM19.052 15.576L17.484 4.504H17.42L15.884 15.576H19.052ZM25.0158 0.599998H30.3278C32.1411 0.599998 33.4638 1.02667 34.2958 1.88C35.1278 2.712 35.5438 4.00267 35.5438 5.752V6.648C35.5438 7.8 35.3518 8.73867 34.9678 9.464C34.6051 10.1893 34.0398 10.712 33.2718 11.032V11.096C35.0211 11.6933 35.8958 13.2507 35.8958 15.768V17.688C35.8958 19.416 35.4371 20.7387 34.5198 21.656C33.6238 22.552 32.3011 23 30.5518 23H25.0158V0.599998ZM29.9118 9.72C30.6158 9.72 31.1384 9.53867 31.4798 9.176C31.8424 8.81333 32.0238 8.20533 32.0238 7.352V6.104C32.0238 5.29333 31.8744 4.70667 31.5758 4.344C31.2984 3.98133 30.8504 3.8 30.2318 3.8H28.5358V9.72H29.9118ZM30.5518 19.8C31.1704 19.8 31.6291 19.64 31.9278 19.32C32.2264 18.9787 32.3758 18.4027 32.3758 17.592V15.64C32.3758 14.616 32.1944 13.912 31.8318 13.528C31.4904 13.1227 30.9144 12.92 30.1038 12.92H28.5358V19.8H30.5518ZM37.6333 0.599998H42.8493C44.6626 0.599998 45.9853 1.02667 46.8173 1.88C47.6493 2.712 48.0653 4.00267 48.0653 5.752V7.128C48.0653 9.45333 47.2973 10.9253 45.7613 11.544V11.608C46.6146 11.864 47.2119 12.3867 47.5533 13.176C47.9159 13.9653 48.0973 15.0213 48.0973 16.344V20.28C48.0973 20.92 48.1186 21.4427 48.1613 21.848C48.2039 22.232 48.3106 22.616 48.4813 23H44.8973C44.7693 22.6373 44.6839 22.296 44.6413 21.976C44.5986 21.656 44.5773 21.08 44.5773 20.248V16.152C44.5773 15.128 44.4066 14.4133 44.0653 14.008C43.7453 13.6027 43.1799 13.4 42.3693 13.4H41.1533V23H37.6333V0.599998ZM42.4333 10.2C43.1373 10.2 43.6599 10.0187 44.0013 9.656C44.3639 9.29333 44.5453 8.68533 44.5453 7.832V6.104C44.5453 5.29333 44.3959 4.70667 44.0973 4.344C43.8199 3.98133 43.3719 3.8 42.7533 3.8H41.1533V10.2H42.4333ZM50.2195 0.599998H53.7395V23H50.2195V0.599998ZM56.0558 0.599998H65.6558V3.8H59.5758V9.72H64.4078V12.92H59.5758V19.8H65.6558V23H56.0558V0.599998ZM67.3608 0.599998H70.8808V19.8H76.6728V23H67.3608V0.599998ZM87.8378 23.32C86.1311 23.32 84.8298 22.84 83.9338 21.88C83.0378 20.8987 82.5898 19.5013 82.5898 17.688V5.912C82.5898 4.09867 83.0378 2.712 83.9338 1.752C84.8298 0.770665 86.1311 0.279999 87.8378 0.279999C89.5444 0.279999 90.8458 0.770665 91.7418 1.752C92.6378 2.712 93.0858 4.09867 93.0858 5.912V7.832H89.7578V5.688C89.7578 4.216 89.1498 3.48 87.9338 3.48C86.7178 3.48 86.1098 4.216 86.1098 5.688V17.944C86.1098 19.3947 86.7178 20.12 87.9338 20.12C89.1498 20.12 89.7578 19.3947 89.7578 17.944V13.56H87.9978V10.36H93.0858V17.688C93.0858 19.5013 92.6378 20.8987 91.7418 21.88C90.8458 22.84 89.5444 23.32 87.8378 23.32ZM100.114 23.32C98.3858 23.32 97.0631 22.8293 96.1458 21.848C95.2284 20.8667 94.7698 19.48 94.7698 17.688V5.912C94.7698 4.12 95.2284 2.73333 96.1458 1.752C97.0631 0.770665 98.3858 0.279999 100.114 0.279999C101.842 0.279999 103.164 0.770665 104.082 1.752C104.999 2.73333 105.458 4.12 105.458 5.912V17.688C105.458 19.48 104.999 20.8667 104.082 21.848C103.164 22.8293 101.842 23.32 100.114 23.32ZM100.114 20.12C101.33 20.12 101.938 19.384 101.938 17.912V5.688C101.938 4.216 101.33 3.48 100.114 3.48C98.8978 3.48 98.2898 4.216 98.2898 5.688V17.912C98.2898 19.384 98.8978 20.12 100.114 20.12ZM112.638 23.32C110.932 23.32 109.63 22.84 108.734 21.88C107.838 20.8987 107.39 19.5013 107.39 17.688V0.599998H110.91V17.944C110.91 18.712 111.06 19.2667 111.358 19.608C111.678 19.9493 112.126 20.12 112.702 20.12C113.278 20.12 113.716 19.9493 114.014 19.608C114.334 19.2667 114.494 18.712 114.494 17.944V0.599998H117.886V17.688C117.886 19.5013 117.438 20.8987 116.542 21.88C115.646 22.84 114.345 23.32 112.638 23.32ZM120.073 0.599998H123.593V19.8H129.385V23H120.073V0.599998ZM133.598 0.599998H138.366L142.014 23H138.494L137.854 18.552V18.616H133.854L133.214 23H129.95L133.598 0.599998ZM137.438 15.576L135.87 4.504H135.806L134.27 15.576H137.438ZM143.402 0.599998H148.618C150.431 0.599998 151.754 1.02667 152.586 1.88C153.418 2.712 153.834 4.00267 153.834 5.752V7.128C153.834 9.45333 153.066 10.9253 151.53 11.544V11.608C152.383 11.864 152.981 12.3867 153.322 13.176C153.685 13.9653 153.866 15.0213 153.866 16.344V20.28C153.866 20.92 153.887 21.4427 153.93 21.848C153.973 22.232 154.079 22.616 154.25 23H150.666C150.538 22.6373 150.453 22.296 150.41 21.976C150.367 21.656 150.346 21.08 150.346 20.248V16.152C150.346 15.128 150.175 14.4133 149.834 14.008C149.514 13.6027 148.949 13.4 148.138 13.4H146.922V23H143.402V0.599998ZM148.202 10.2C148.906 10.2 149.429 10.0187 149.77 9.656C150.133 9.29333 150.314 8.68533 150.314 7.832V6.104C150.314 5.29333 150.165 4.70667 149.866 4.344C149.589 3.98133 149.141 3.8 148.522 3.8H146.922V10.2H148.202ZM158.678 3.8H154.998V0.599998H165.878V3.8H162.198V23H158.678V3.8ZM172.067 0.599998H177.379C179.192 0.599998 180.515 1.02667 181.347 1.88C182.179 2.712 182.595 4.00267 182.595 5.752V6.648C182.595 7.8 182.403 8.73867 182.019 9.464C181.656 10.1893 181.091 10.712 180.323 11.032V11.096C182.072 11.6933 182.947 13.2507 182.947 15.768V17.688C182.947 19.416 182.488 20.7387 181.571 21.656C180.675 22.552 179.352 23 177.603 23H172.067V0.599998ZM176.963 9.72C177.667 9.72 178.19 9.53867 178.531 9.176C178.894 8.81333 179.075 8.20533 179.075 7.352V6.104C179.075 5.29333 178.926 4.70667 178.627 4.344C178.35 3.98133 177.902 3.8 177.283 3.8H175.587V9.72H176.963ZM177.603 19.8C178.222 19.8 178.68 19.64 178.979 19.32C179.278 18.9787 179.427 18.4027 179.427 17.592V15.64C179.427 14.616 179.246 13.912 178.883 13.528C178.542 13.1227 177.966 12.92 177.155 12.92H175.587V19.8H177.603ZM187.404 0.599998H192.172L195.82 23H192.3L191.66 18.552V18.616H187.66L187.02 23H183.756L187.404 0.599998ZM191.244 15.576L189.676 4.504H189.612L188.076 15.576H191.244ZM197.208 0.599998H202.424C204.238 0.599998 205.56 1.02667 206.392 1.88C207.224 2.712 207.64 4.00267 207.64 5.752V7.128C207.64 9.45333 206.872 10.9253 205.336 11.544V11.608C206.19 11.864 206.787 12.3867 207.128 13.176C207.491 13.9653 207.672 15.0213 207.672 16.344V20.28C207.672 20.92 207.694 21.4427 207.736 21.848C207.779 22.232 207.886 22.616 208.056 23H204.472C204.344 22.6373 204.259 22.296 204.216 21.976C204.174 21.656 204.152 21.08 204.152 20.248V16.152C204.152 15.128 203.982 14.4133 203.64 14.008C203.32 13.6027 202.755 13.4 201.944 13.4H200.728V23H197.208V0.599998ZM202.008 10.2C202.712 10.2 203.235 10.0187 203.576 9.656C203.939 9.29333 204.12 8.68533 204.12 7.832V6.104C204.12 5.29333 203.971 4.70667 203.672 4.344C203.395 3.98133 202.947 3.8 202.328 3.8H200.728V10.2H202.008ZM209.794 0.599998H215.106C216.92 0.599998 218.242 1.02667 219.074 1.88C219.906 2.712 220.322 4.00267 220.322 5.752V6.648C220.322 7.8 220.13 8.73867 219.746 9.464C219.384 10.1893 218.818 10.712 218.05 11.032V11.096C219.8 11.6933 220.674 13.2507 220.674 15.768V17.688C220.674 19.416 220.216 20.7387 219.298 21.656C218.402 22.552 217.08 23 215.33 23H209.794V0.599998ZM214.69 9.72C215.394 9.72 215.917 9.53867 216.258 9.176C216.621 8.81333 216.802 8.20533 216.802 7.352V6.104C216.802 5.29333 216.653 4.70667 216.354 4.344C216.077 3.98133 215.629 3.8 215.01 3.8H213.314V9.72H214.69ZM215.33 19.8C215.949 19.8 216.408 19.64 216.706 19.32C217.005 18.9787 217.154 18.4027 217.154 17.592V15.64C217.154 14.616 216.973 13.912 216.61 13.528C216.269 13.1227 215.693 12.92 214.882 12.92H213.314V19.8H215.33ZM227.5 23.32C225.772 23.32 224.449 22.8293 223.532 21.848C222.615 20.8667 222.156 19.48 222.156 17.688V5.912C222.156 4.12 222.615 2.73333 223.532 1.752C224.449 0.770665 225.772 0.279999 227.5 0.279999C229.228 0.279999 230.551 0.770665 231.468 1.752C232.385 2.73333 232.844 4.12 232.844 5.912V17.688C232.844 19.48 232.385 20.8667 231.468 21.848C230.551 22.8293 229.228 23.32 227.5 23.32ZM227.5 20.12C228.716 20.12 229.324 19.384 229.324 17.912V5.688C229.324 4.216 228.716 3.48 227.5 3.48C226.284 3.48 225.676 4.216 225.676 5.688V17.912C225.676 19.384 226.284 20.12 227.5 20.12ZM234.2 19.864L240.728 3.8H234.52V0.599998H244.504V3.736L237.976 19.8H244.504V23H234.2V19.864ZM248.898 0.599998H253.666L257.314 23H253.794L253.154 18.552V18.616H249.154L248.514 23H245.25L248.898 0.599998ZM252.738 15.576L251.17 4.504H251.106L249.57 15.576H252.738Z" fill="#C7C7C7"/>
</svg>
